<?xml version="1.0" encoding="UTF-8" standalone="no"?>
<!DOCTYPE svg PUBLIC "-//W3C//DTD SVG 1.1//EN" "http://www.w3.org/Graphics/SVG/1.1/DTD/svg11.dtd">
<svg width="100%" height="100%" viewBox="0 0 55 45" version="1.1" xmlns="http://www.w3.org/2000/svg" xmlns:xlink="http://www.w3.org/1999/xlink" xml:space="preserve" xmlns:serif="http://www.serif.com/" style="fill-rule:evenodd;clip-rule:evenodd;stroke-linejoin:round;stroke-miterlimit:2;">
    <g>
        <path d="M5.737,2.887L4.959,2.887C3.2,2.887 1.769,4.318 1.769,6.076L1.769,18.535C1.769,20.295 3.201,21.725 4.959,21.725L20.137,21.725L25.376,26.964L25.376,21.725L26.217,21.725C26.759,21.725 27.27,21.589 27.717,21.35L27.717,18.334C27.717,17.027 28.389,15.874 29.406,15.203L29.406,6.076C29.406,4.318 27.975,2.887 26.217,2.887L7.974,2.887L7.974,1.925L26.216,1.925C28.506,1.925 30.367,3.787 30.367,6.076L30.367,14.75C30.714,14.644 31.083,14.586 31.465,14.586L47.852,14.586L47.852,15.495C47.852,15.495 31.465,15.495 31.465,15.495C31.076,15.495 30.705,15.574 30.367,15.716L30.367,18.536C30.367,19.928 29.679,21.161 28.625,21.915L28.625,29.511C28.625,31.076 29.899,32.35 31.465,32.35L32.242,32.35L32.242,37.016L36.908,32.35L50.533,32.35C52.099,32.35 53.373,31.077 53.373,29.511L53.373,18.334C53.373,16.769 52.099,15.495 50.533,15.495L49.813,15.495L49.813,14.587L50.533,14.587C52.6,14.587 54.281,16.268 54.281,18.335C54.281,18.335 54.281,29.512 54.281,29.512C54.281,31.579 52.6,33.26 50.533,33.26L37.284,33.26L31.333,39.212L31.333,33.257C29.327,33.187 27.717,31.535 27.717,29.511L27.717,22.406C27.287,22.574 26.822,22.672 26.337,22.685L26.337,29.286L19.739,22.687L4.959,22.687C2.67,22.687 0.808,20.825 0.808,18.536L0.808,6.076C0.808,3.787 2.67,1.925 4.959,1.925L5.737,1.925L5.737,2.887ZM29.387,16.401C28.9,16.93 28.63,17.615 28.625,18.334L28.625,20.624C29.111,20.064 29.406,19.334 29.406,18.536L29.406,16.381L29.387,16.401Z" style="fill:white;fill-rule:nonzero;"/>
    </g>
</svg>
