<?xml version="1.0" encoding="UTF-8" standalone="no"?>
<!DOCTYPE svg PUBLIC "-//W3C//DTD SVG 1.1//EN" "http://www.w3.org/Graphics/SVG/1.1/DTD/svg11.dtd">
<svg width="100%" height="100%" viewBox="0 0 55 45" version="1.1" xmlns="http://www.w3.org/2000/svg" xmlns:xlink="http://www.w3.org/1999/xlink" xml:space="preserve" xmlns:serif="http://www.serif.com/" style="fill-rule:evenodd;clip-rule:evenodd;stroke-linejoin:round;stroke-miterlimit:2;">
    <g transform="matrix(1,0,0,1,-108.995,-349.081)">
        <path d="M115.303,369.167L115.303,351.981C115.303,350.381 116.603,349.081 118.203,349.081L160.591,349.081C162.191,349.081 163.491,350.381 163.491,351.981C163.491,351.981 163.491,379.621 163.491,379.621C163.491,381.13 162.336,382.372 160.863,382.509L160.863,392.56C160.862,392.683 160.842,392.806 160.801,392.923C160.693,393.228 160.449,393.475 160.145,393.587C160.029,393.629 159.907,393.651 159.783,393.653L151.662,393.653C151.539,393.652 151.416,393.632 151.299,393.591C150.99,393.482 150.74,393.232 150.631,392.923C150.59,392.806 150.57,392.683 150.569,392.56L150.569,382.522L144.816,382.522L149.568,388.331C149.613,388.387 149.648,388.45 149.67,388.518C149.739,388.732 149.675,388.972 149.51,389.123C149.463,389.165 149.408,389.2 149.35,389.226C149.281,389.255 149.207,389.271 149.132,389.273L129.203,389.273C129.126,389.272 129.05,389.257 128.978,389.227C128.782,389.144 128.645,388.955 128.628,388.743C128.623,388.684 128.628,388.624 128.641,388.566C128.659,388.488 128.694,388.415 128.742,388.35L133.117,382.522L127.481,382.522L127.481,392.254C127.48,392.431 127.451,392.605 127.393,392.771C127.24,393.206 126.892,393.558 126.459,393.717C126.294,393.777 126.12,393.808 125.944,393.811L125.924,393.811L110.551,393.811C109.692,393.811 108.995,393.114 108.995,392.254L108.995,370.723C108.995,369.864 109.692,369.167 110.551,369.167L115.303,369.167ZM125.924,392.658C126.147,392.658 126.327,392.477 126.327,392.254L126.327,370.723C126.327,370.501 126.147,370.32 125.924,370.32L110.551,370.32C110.329,370.32 110.148,370.501 110.148,370.723C110.148,370.723 110.148,392.254 110.148,392.254C110.148,392.477 110.329,392.658 110.551,392.658L125.924,392.658ZM151.722,377.633L151.722,392.5L159.71,392.5L159.71,377.633L151.722,377.633ZM134.475,382.633L130.357,388.119L147.905,388.119L143.397,382.608L134.475,382.633ZM160.591,350.235L118.203,350.235L118.181,350.235C117.954,350.241 117.73,350.284 117.52,350.373C117.082,350.56 116.732,350.931 116.566,351.378C116.495,351.571 116.46,351.775 116.457,351.981L116.508,369.167C116.684,369.168 126.275,369.196 126.441,369.255C126.882,369.41 127.237,369.766 127.393,370.206C127.451,370.372 127.48,370.547 127.481,370.723L127.481,381.368L150.569,381.368L150.569,377.573C150.569,376.97 151.059,376.48 151.662,376.48L159.769,376.48C160.373,376.48 160.863,376.97 160.863,377.573L160.863,381.346C161.058,381.315 161.248,381.253 161.423,381.157C161.981,380.854 162.337,380.255 162.337,379.621C162.337,370.408 162.337,361.195 162.337,351.981C162.337,351.347 161.981,350.749 161.423,350.445C161.174,350.31 160.896,350.24 160.613,350.235L160.591,350.235Z" style="fill:white;"/>
    </g>
</svg>
